<svg xmlns="http://www.w3.org/2000/svg" viewBox="0 0 1440 320"><path fill="#0019F787" fill-opacity="1" d="M0,288L18.5,288C36.9,288,74,288,111,272C147.7,256,185,224,222,197.3C258.5,171,295,149,332,154.7C369.2,160,406,192,443,197.3C480,203,517,181,554,149.3C590.8,117,628,75,665,58.7C701.5,43,738,53,775,48C812.3,43,849,21,886,16C923.1,11,960,21,997,58.7C1033.8,96,1071,160,1108,208C1144.6,256,1182,288,1218,266.7C1255.4,245,1292,171,1329,154.7C1366.2,139,1403,181,1422,202.7L1440,224L1440,0L1421.5,0C1403.1,0,1366,0,1329,0C1292.3,0,1255,0,1218,0C1181.5,0,1145,0,1108,0C1070.8,0,1034,0,997,0C960,0,923,0,886,0C849.2,0,812,0,775,0C738.5,0,702,0,665,0C627.7,0,591,0,554,0C516.9,0,480,0,443,0C406.2,0,369,0,332,0C295.4,0,258,0,222,0C184.6,0,148,0,111,0C73.8,0,37,0,18,0L0,0Z"></path></svg>